<svg width="30.000000" height="20.452057" viewBox="0 0 30 20.4521" fill="none" xmlns="http://www.w3.org/2000/svg" xmlns:xlink="http://www.w3.org/1999/xlink">
	<desc>
			Created with Pixso.
	</desc>
	<defs/>
	<path id="Vector" d="M24.52 14.95C23.79 14.95 23.09 15.24 22.57 15.76C22.04 16.28 21.75 16.97 21.75 17.7C21.75 18.43 22.04 19.12 22.57 19.64C23.1 20.16 23.79 20.45 24.52 20.45C26.02 20.45 27.25 19.21 27.25 17.7C27.25 16.18 26.02 14.95 24.52 14.95ZM24.52 19.23C23.68 19.23 22.97 18.53 22.97 17.7C22.97 16.87 23.68 16.17 24.52 16.17C25.35 16.17 26.02 16.86 26.02 17.7C26.02 18.54 25.35 19.23 24.52 19.23ZM25.23 5.79C25.12 5.69 24.97 5.63 24.82 5.63L21.69 5.63C21.35 5.63 21.08 5.91 21.08 6.24L21.08 11.25C21.08 11.59 21.35 11.86 21.69 11.86L26.66 11.86C27 11.86 27.27 11.59 27.27 11.25L27.27 7.9C27.27 7.73 27.2 7.56 27.07 7.45L25.23 5.79ZM26.05 10.64L22.3 10.64L22.3 6.85L24.58 6.85L26.05 8.17L26.05 10.64ZM9.6 14.95C8.87 14.95 8.17 15.24 7.65 15.76C7.12 16.28 6.83 16.97 6.83 17.7C6.83 18.43 7.12 19.12 7.65 19.64C8.18 20.16 8.87 20.45 9.6 20.45C11.11 20.45 12.33 19.21 12.33 17.7C12.33 16.18 11.11 14.95 9.6 14.95ZM9.6 19.23C8.76 19.23 8.05 18.53 8.05 17.7C8.05 16.87 8.76 16.17 9.6 16.17C10.43 16.17 11.11 16.86 11.11 17.7C11.11 18.54 10.43 19.23 9.6 19.23ZM5.53 15.7L4.3 15.7L4.3 14.08C4.3 13.74 4.03 13.46 3.69 13.46C3.35 13.46 3.08 13.74 3.08 14.08L3.08 16.31C3.08 16.65 3.35 16.92 3.69 16.92L5.53 16.92C5.87 16.92 6.14 16.65 6.14 16.31C6.14 15.98 5.87 15.7 5.53 15.7ZM8.63 12.37C8.63 12.04 8.35 11.76 8.02 11.76L0.61 11.76C0.27 11.76 0 12.04 0 12.37C0 12.71 0.27 12.98 0.61 12.98L8.02 12.98C8.35 12.98 8.63 12.71 8.63 12.37ZM1.85 10.17L9.26 10.21C9.59 10.21 9.87 9.94 9.87 9.6C9.88 9.26 9.6 8.99 9.27 8.99L1.86 8.94C1.85 8.94 1.85 8.94 1.85 8.94C1.52 8.94 1.24 9.21 1.24 9.55C1.24 9.89 1.51 10.17 1.85 10.17ZM3.09 7.39L10.5 7.39C10.84 7.39 11.11 7.12 11.11 6.78C11.11 6.45 10.84 6.17 10.5 6.17L3.09 6.17C2.76 6.17 2.48 6.45 2.48 6.78C2.48 7.12 2.76 7.39 3.09 7.39ZM29.77 6.57L25.4 2.95C25.29 2.85 25.15 2.81 25 2.81L19.86 2.81L19.86 0.61C19.86 0.27 19.59 0 19.25 0L3.69 0C3.35 0 3.08 0.27 3.08 0.61L3.08 5.08C3.08 5.41 3.35 5.69 3.69 5.69C4.03 5.69 4.3 5.41 4.3 5.08L4.3 1.22L18.65 1.22L18.65 15.7L13.64 15.7C13.3 15.7 13.02 15.98 13.02 16.31C13.02 16.65 13.3 16.92 13.64 16.92L21.09 16.92C21.43 16.92 21.71 16.65 21.71 16.31C21.71 15.98 21.43 15.7 21.09 15.7L19.87 15.7L19.87 4.03L24.79 4.03L28.77 7.33L28.73 15.69L28.1 15.69C27.76 15.69 27.48 15.96 27.48 16.3C27.48 16.64 27.76 16.91 28.1 16.91L29.34 16.91C29.67 16.91 29.95 16.64 29.95 16.31L30 7.04C29.99 6.86 29.91 6.68 29.77 6.57Z" fill="#000000" fill-opacity="1.000000" fill-rule="nonzero"/>
</svg>
